<svg xmlns="http://www.w3.org/2000/svg" width="512" height="512" viewBox="0 0 512 512" version="1.1">
	<path d="M 266.750 42.758 C 263.587 50.355, 261 57.064, 261 57.668 C 261 59.165, 257.571 59.966, 251 60.006 C 246.003 60.037, 236.716 61.066, 228.250 62.529 C 226.133 62.895, 225 62.687, 225 61.934 C 225 61.298, 221.287 55.573, 216.750 49.213 C 212.213 42.853, 208.225 37.240, 207.888 36.739 C 207.367 35.964, 200.443 37.765, 183.150 43.174 L 179.799 44.221 180.150 60.390 L 180.500 76.558 170 81.717 C 164.225 84.554, 157.353 88.141, 154.728 89.688 C 151.483 91.600, 149.723 92.145, 149.228 91.389 C 148.828 90.778, 142.686 86.655, 135.581 82.227 L 122.661 74.176 112.581 82.248 C 107.036 86.688, 102.139 90.632, 101.698 91.012 C 100.937 91.668, 111.246 116.440, 113.116 118.450 C 114.927 120.397, 113.864 122.708, 108.935 127.538 C 106.150 130.267, 101.356 135.771, 98.282 139.769 C 94.389 144.833, 92.204 146.882, 91.077 146.525 C 89.112 145.901, 61.942 141.010, 60.409 141.004 C 59.213 141, 46.638 163.567, 47.171 164.762 C 47.797 166.165, 68.504 185.686, 69.824 186.117 C 70.862 186.456, 70.679 187.735, 68.979 192.025 C 67.786 195.036, 65.583 202.185, 64.084 207.910 L 61.358 218.320 45.178 221.495 C 36.278 223.241, 28.779 224.888, 28.512 225.155 C 27.495 226.172, 25.708 251.107, 26.593 251.936 C 27.905 253.166, 53.306 263, 55.171 263 C 56.434 263, 56.884 264.815, 57.465 272.241 C 57.863 277.324, 58.750 285.015, 59.437 289.333 C 60.550 296.329, 60.513 297.247, 59.093 297.766 C 55.542 299.066, 33 314.287, 33 315.385 C 33 316.035, 34.727 321.726, 36.838 328.033 L 40.676 339.500 57.835 339.774 L 74.995 340.047 78.111 346.274 C 79.825 349.698, 83.429 356.167, 86.120 360.650 L 91.013 368.799 83.055 380.150 C 71.433 396.724, 71.906 395.003, 77.255 401.265 C 79.761 404.198, 83.820 408.817, 86.276 411.530 L 90.741 416.462 105.370 410.637 C 113.415 407.434, 120.257 404.394, 120.573 403.882 C 120.890 403.370, 124.261 405.636, 128.065 408.918 C 131.869 412.200, 137.911 416.976, 141.491 419.531 C 145.071 422.085, 148 424.291, 148 424.432 C 148 424.573, 146.650 431.353, 145 439.500 C 143.350 447.647, 142 454.688, 142 455.148 C 142 456.170, 165.843 468.229, 167.021 467.803 C 168.299 467.342, 188.777 447.170, 189.173 445.982 C 189.389 445.332, 191.767 445.727, 195.510 447.033 C 202.438 449.451, 223.734 454.993, 226.112 454.997 C 227.289 454.999, 228.003 453.447, 228.757 449.250 C 229.326 446.087, 232.981 426.880, 236.879 406.567 C 240.777 386.254, 243.862 369.554, 243.734 369.456 C 243.605 369.359, 240.125 368.477, 236 367.498 C 209.304 361.160, 188.443 348.362, 170.575 327.359 C 167.234 323.432, 163.722 318.879, 162.772 317.242 L 161.043 314.265 189.772 299.535 C 205.572 291.433, 218.620 284.691, 218.767 284.552 C 218.914 284.413, 217.686 281.417, 216.038 277.895 C 214.390 274.373, 212.579 269.053, 212.014 266.072 C 211.448 263.091, 210.862 260.529, 210.711 260.378 C 210.560 260.227, 195.928 261.719, 178.194 263.694 C 160.461 265.669, 145.673 267.006, 145.332 266.665 C 144.114 265.447, 144.902 244.877, 146.492 236.393 C 150.779 213.513, 162.698 191.959, 180.131 175.559 C 187.884 168.265, 202.180 158, 204.584 158 C 205.230 158, 212.345 169.812, 220.393 184.250 C 228.441 198.688, 235.386 211.065, 235.826 211.756 C 236.443 212.725, 238.035 212.440, 242.793 210.506 C 246.185 209.128, 249.419 208, 249.980 208 C 250.668 208, 251 248.812, 251 333.318 C 251 472.390, 250.633 464.706, 257.672 472.930 C 259.725 475.328, 263.652 478.326, 266.444 479.626 L 271.500 481.980 368.500 481.980 L 465.500 481.980 470.556 479.626 C 473.355 478.323, 477.277 475.327, 479.343 472.913 C 486.436 464.626, 486.057 473.556, 485.764 321.446 L 485.500 184.500 482.799 179.380 C 479.775 173.648, 475.452 169.581, 469.500 166.867 C 465.718 165.143, 460.220 165.043, 368.718 165.022 C 263.321 164.998, 269.011 164.704, 261.304 170.582 C 259.184 172.199, 257.986 172.636, 257.960 171.801 C 257.939 171.085, 257.113 164.255, 256.126 156.621 L 254.331 142.742 269.415 143.275 C 289.209 143.975, 293.552 145.129, 319.643 156.628 C 320.313 156.924, 324.416 150.585, 329.555 141.316 C 348.763 106.667, 376 56.651, 376 56.028 C 376 55.665, 373.329 54.091, 370.065 52.531 L 364.130 49.694 355.443 57.581 C 350.665 61.919, 345.348 67.111, 343.628 69.119 L 340.500 72.770 332 69.999 C 327.325 68.474, 319.787 66.392, 315.250 65.372 C 308.730 63.907, 307 63.148, 307 61.752 C 307 58.180, 300.864 32.534, 299.861 31.914 C 299.291 31.562, 294.252 30.973, 288.663 30.604 C 283.073 30.236, 277.150 29.712, 275.500 29.441 L 272.500 28.947 266.750 42.758 M 213.378 102.767 L 210.255 106.562 211.899 111.012 C 213.440 115.182, 213.861 115.533, 218.593 116.584 L 223.644 117.706 226.866 113.867 C 229.967 110.174, 230.043 109.875, 228.868 105.955 C 227.510 101.422, 226.321 100.519, 220.500 99.602 C 216.767 99.015, 216.292 99.226, 213.378 102.767 M 118.033 172.328 C 114.330 175.174, 114.041 175.732, 114.583 178.967 C 115.612 185.108, 115.880 185.473, 120.636 187.183 L 125.294 188.858 129.147 185.762 C 133.049 182.626, 133.408 181.411, 132.132 175.647 C 131.631 173.384, 130.525 172.424, 126.788 171.008 L 122.075 169.222 118.033 172.328 M 286.077 204.589 L 283 207.178 283 225.166 L 283 243.154 285.923 246.077 L 288.846 249 367.973 249 C 451.866 249, 451.630 249.013, 453.379 244.455 C 453.720 243.565, 454 234.813, 454 225.007 L 454 207.178 450.923 204.589 L 447.847 202 368.500 202 L 289.153 202 286.077 204.589 M 291 284 C 289.185 285.815, 289 287.333, 289 300.429 C 289 312.212, 289.288 315.145, 290.571 316.429 C 291.862 317.720, 294.861 318, 307.371 318 C 317.883 318, 322.972 317.628, 323.800 316.800 C 324.628 315.972, 325 310.901, 325 300.455 C 325 280.933, 326.031 282, 307.171 282 C 294.333 282, 292.812 282.188, 291 284 M 352.750 283.080 C 351.201 283.983, 351 285.904, 351 299.850 C 351 310.767, 351.368 315.968, 352.200 316.800 C 353.878 318.478, 383.122 318.478, 384.800 316.800 C 385.632 315.968, 386 310.763, 386 299.835 C 386 285.272, 385.853 283.991, 384.066 283.035 C 381.570 281.699, 355.055 281.737, 352.750 283.080 M 413.655 283.829 C 412.270 285.359, 412 288.101, 412 300.629 C 412 310.940, 412.374 315.974, 413.200 316.800 C 414.028 317.628, 419.117 318, 429.629 318 C 442.139 318, 445.138 317.720, 446.429 316.429 C 447.712 315.145, 448 312.212, 448 300.429 C 448 281.191, 448.805 282, 429.655 282 C 417.028 282, 415.112 282.219, 413.655 283.829 M 110.393 296.978 C 109.233 297.447, 107.522 299.736, 106.590 302.066 L 104.895 306.303 107.800 309.901 C 110.876 313.713, 113.282 314.545, 118.436 313.578 C 120.947 313.107, 122.055 312.067, 123.740 308.599 L 125.869 304.216 122.848 300.108 C 120.238 296.559, 119.329 296.009, 116.163 296.063 C 114.149 296.098, 111.552 296.510, 110.393 296.978 M 290.655 347.829 C 289.282 349.346, 289 352.030, 289 363.606 C 289 382.928, 288.096 382, 306.902 382 C 326.019 382, 325 383.007, 325 364.106 C 325 356.204, 324.539 349.008, 323.965 347.934 C 323.011 346.151, 321.733 346, 307.620 346 C 294.058 346, 292.121 346.209, 290.655 347.829 M 352.200 347.200 C 351.368 348.032, 351 353.237, 351 364.165 C 351 378.728, 351.147 380.009, 352.934 380.965 C 353.998 381.534, 361.003 382, 368.500 382 C 375.997 382, 383.002 381.534, 384.066 380.965 C 385.853 380.009, 386 378.728, 386 364.165 C 386 353.237, 385.632 348.032, 384.800 347.200 C 383.122 345.522, 353.878 345.522, 352.200 347.200 M 413.200 347.200 C 412.372 348.028, 412 353.099, 412 363.545 C 412 383.110, 410.901 382, 430.272 382 C 448.893 382, 448 382.935, 448 363.432 C 448 345.016, 449.052 346, 429.371 346 C 419.060 346, 414.026 346.374, 413.200 347.200 M 183.665 390.930 L 181.003 394.953 183.201 399.476 C 185.386 403.974, 185.428 404, 190.566 404 C 195.498 404, 195.857 403.815, 198.414 399.950 L 201.095 395.900 198.783 391.700 C 196.589 387.713, 196.214 387.485, 191.400 387.203 C 186.465 386.915, 186.255 387.016, 183.665 390.930 M 291 411 C 289.190 412.810, 289 414.333, 289 427.066 C 289 434.849, 289.462 441.995, 290.035 443.066 C 290.991 444.853, 292.272 445, 306.835 445 C 317.763 445, 322.968 444.632, 323.800 443.800 C 324.628 442.972, 325 437.879, 325 427.357 C 325 408.042, 325.951 409, 306.777 409 C 294.333 409, 292.806 409.194, 291 411 M 352.200 411.200 C 351.368 412.032, 351 417.237, 351 428.165 C 351 442.728, 351.147 444.009, 352.934 444.965 C 353.998 445.534, 361.003 446, 368.500 446 C 375.997 446, 383.002 445.534, 384.066 444.965 C 385.853 444.009, 386 442.728, 386 428.165 C 386 417.237, 385.632 412.032, 384.800 411.200 C 383.122 409.522, 353.878 409.522, 352.200 411.200 M 413.035 411.934 C 412.458 413.012, 412 420.284, 412 428.363 C 412 440.206, 412.287 443.145, 413.571 444.429 C 414.859 445.716, 417.828 446, 430.015 446 C 448.934 446, 448 446.964, 448 427.432 C 448 409.001, 449.077 410, 429.206 410 C 415.265 410, 413.989 410.153, 413.035 411.934" stroke="none" fill="black" fill-rule="evenodd"/>
</svg>