<svg xmlns="http://www.w3.org/2000/svg" width="512" height="512" viewBox="0 0 512 512" version="1.1">
	<path d="M 34.500 1.421 C 26.190 3.500, 19.918 7.093, 13.498 13.454 C 6.936 19.955, 3.004 27.061, 1.134 35.799 C -0.374 42.846, -0.445 444.357, 1.061 450.888 C 3.784 462.701, 14.074 476.016, 24.256 480.902 C 35.168 486.138, 30.976 485.975, 155.348 485.988 L 271.196 486 262.348 479.154 C 244.614 465.432, 229.258 446.824, 219.083 426.726 C 196.638 382.392, 196.623 332.418, 219.041 287.448 C 233.425 258.594, 258.103 233.868, 287.294 219.062 C 330.316 197.242, 379.830 196.715, 423.988 217.609 C 444.112 227.131, 465.089 244.141, 479.161 262.348 L 486 271.196 485.976 155.348 C 485.960 80.875, 485.590 37.933, 484.939 35.112 C 481.210 18.935, 467.065 4.790, 450.888 1.061 C 443.921 -0.546, 40.967 -0.197, 34.500 1.421 M 114.962 73.250 C 107.999 76.761, 106 81.660, 106 95.212 L 106 106 95.212 106 C 81.456 106, 76.754 107.972, 73.140 115.258 C 70.474 120.633, 70.700 124.360, 74.024 129.808 C 77.277 135.143, 82.634 136.952, 95.250 136.978 L 106 137 106.022 147.750 C 106.048 160.366, 107.857 165.723, 113.192 168.976 C 118.640 172.300, 122.367 172.526, 127.742 169.860 C 135.028 166.246, 137 161.544, 137 147.788 L 137 137 147.750 136.978 C 160.366 136.952, 165.723 135.143, 168.976 129.808 C 172.300 124.360, 172.526 120.633, 169.860 115.258 C 166.246 107.972, 161.544 106, 147.788 106 L 137 106 137 95.212 C 137 81.660, 135.001 76.761, 128.038 73.250 C 125.584 72.013, 122.642 71, 121.500 71 C 120.358 71, 117.416 72.013, 114.962 73.250 M 324.500 107.480 C 310.646 112.462, 311.591 132.120, 325.869 135.965 C 328.718 136.732, 341.787 136.997, 366.777 136.796 C 401.437 136.517, 403.686 136.388, 406.819 134.500 C 416.748 128.517, 416.748 114.483, 406.819 108.500 C 403.677 106.606, 401.503 106.488, 366 106.271 C 335.463 106.084, 327.757 106.308, 324.500 107.480 M 330 236.121 C 323.075 238.874, 318.816 245.948, 317.028 257.665 C 314.378 275.027, 307.321 278.851, 290.165 272.221 C 277.834 267.456, 270.805 268.148, 264.582 274.741 C 260.327 279.249, 239.250 316.560, 238.521 320.875 C 237.360 327.746, 240.461 333.501, 249.517 341.286 C 265.002 354.596, 265.002 360.404, 249.517 373.714 C 240.461 381.499, 237.360 387.254, 238.521 394.125 C 239.250 398.440, 260.327 435.751, 264.582 440.259 C 270.805 446.852, 277.834 447.544, 290.165 442.779 C 307.321 436.149, 314.378 439.973, 317.028 457.335 C 318.849 469.267, 323.126 476.220, 330.315 478.936 C 334.091 480.363, 380.909 480.363, 384.685 478.936 C 391.874 476.220, 396.151 469.267, 397.972 457.335 C 400.622 439.973, 407.679 436.149, 424.835 442.779 C 437.386 447.629, 444.119 446.870, 450.637 439.869 C 455.126 435.047, 475.725 398.589, 476.478 394.132 C 477.640 387.253, 474.543 381.502, 465.483 373.714 C 449.998 360.404, 449.998 354.596, 465.483 341.286 C 474.539 333.501, 477.640 327.746, 476.479 320.875 C 475.750 316.560, 454.673 279.249, 450.418 274.741 C 444.195 268.148, 437.166 267.456, 424.835 272.221 C 407.679 278.851, 400.622 275.027, 397.972 257.665 C 396.151 245.733, 391.874 238.780, 384.685 236.064 C 381.074 234.699, 333.450 234.749, 330 236.121 M 337.549 255.229 C 337.326 255.928, 336.635 259.650, 336.014 263.500 C 333.198 280.941, 322.798 292.436, 307.690 294.805 C 300.735 295.896, 294.686 295.011, 285.572 291.571 C 281.762 290.133, 278.308 289.303, 277.898 289.728 C 276.522 291.152, 259 321.840, 259 322.827 C 259 323.363, 261.813 326.089, 265.250 328.885 C 272.956 335.153, 277.454 341.664, 279.464 349.460 C 281.372 356.862, 281.372 358.138, 279.464 365.540 C 277.454 373.336, 272.956 379.847, 265.250 386.115 C 261.813 388.911, 259 391.637, 259 392.173 C 259 393.160, 276.522 423.848, 277.898 425.272 C 278.308 425.697, 281.762 424.867, 285.572 423.429 C 294.686 419.989, 300.735 419.104, 307.690 420.195 C 323.116 422.614, 333.156 433.979, 336.230 452.500 L 337.558 460.500 357.506 460.500 L 377.454 460.500 378.221 455.500 C 380.608 439.932, 385.124 431.478, 394.370 425.264 C 403.997 418.793, 414.612 418.055, 427.960 422.926 C 432.600 424.619, 436.722 425.666, 437.122 425.252 C 438.486 423.840, 456 393.150, 456 392.173 C 456 391.637, 453.188 388.911, 449.750 386.115 C 442.044 379.847, 437.546 373.336, 435.536 365.540 C 433.628 358.138, 433.628 356.862, 435.536 349.460 C 437.546 341.664, 442.044 335.153, 449.750 328.885 C 453.188 326.089, 456 323.363, 456 322.827 C 456 321.840, 438.478 291.152, 437.102 289.728 C 436.692 289.303, 433.238 290.133, 429.428 291.571 C 420.314 295.011, 414.265 295.896, 407.310 294.805 C 391.884 292.386, 381.843 281.020, 378.771 262.500 L 377.443 254.500 357.698 254.229 C 342.415 254.019, 337.862 254.245, 337.549 255.229 M 345.688 311.502 C 324.845 317.231, 310.024 336.347, 310.024 357.500 C 310.024 383.238, 331.762 404.976, 357.500 404.976 C 387.859 404.976, 411.252 375.081, 403.547 346.131 C 396.748 320.584, 370.278 304.742, 345.688 311.502 M 91.500 325.491 C 84.013 328.162, 80.050 335.759, 82.125 343.464 C 82.920 346.417, 85.434 349.757, 91.552 355.985 L 99.894 364.478 91.548 373.007 C 85.455 379.234, 82.910 382.619, 82.121 385.550 C 79.102 396.764, 89.342 406.953, 100.528 403.865 C 103.372 403.079, 106.898 400.416, 113.007 394.438 L 121.522 386.106 130.011 394.440 C 136.124 400.440, 139.611 403.079, 142.468 403.866 C 153.683 406.955, 163.959 396.680, 160.865 385.472 C 160.079 382.628, 157.416 379.102, 151.438 372.993 L 143.106 364.478 151.448 355.985 C 157.566 349.757, 160.080 346.417, 160.875 343.464 C 163.898 332.236, 153.666 322.045, 142.472 325.135 C 139.625 325.921, 136.097 328.589, 129.959 334.595 L 121.410 342.960 113.955 335.407 C 103.542 324.856, 98.957 322.832, 91.500 325.491 M 345.287 332.986 C 335.315 338.015, 330 346.538, 330 357.500 C 330 368.595, 335.355 377.080, 345.512 382.080 C 351.218 384.890, 352.646 385.186, 358.705 384.817 C 373.609 383.910, 383.819 373.944, 384.805 359.341 C 385.368 351.011, 383.022 344.232, 377.674 338.741 C 371.984 332.899, 366.946 330.659, 358.500 330.218 C 352.248 329.892, 350.836 330.187, 345.287 332.986" stroke="none" fill="black" fill-rule="evenodd"/>
</svg>